<svg id="Capa_1" enable-background="new 0 0 512.001 512.001" height="512" viewBox="0 0 512.001 512.001" width="512" xmlns="http://www.w3.org/2000/svg"><path d="m123.399 353.094c-5.858-5.857-15.355-5.858-21.213 0-5.858 5.857-5.858 15.355 0 21.213l35.355 35.355c2.929 2.929 6.767 4.394 10.606 4.394 3.838 0 7.678-1.465 10.606-4.394 5.858-5.857 5.858-15.355 0-21.213z"/><path d="m494.125 81.511 13.316-13.316c5.858-5.858 5.858-15.355 0-21.213l-42.589-42.588c-5.857-5.858-15.355-5.858-21.213 0l-13.316 13.316-12.673-12.674c-5.857-5.858-15.355-5.858-21.213 0s-5.858 15.355 0 21.213l12.673 12.673-18.747 18.748-12.673-12.673c-5.857-5.858-15.355-5.858-21.213 0s-5.858 15.355 0 21.213l12.673 12.673-79.905 79.906c-19.261-11.365-39.36-17.594-58.37-17.723-22.538-.134-42.966 8.335-59.176 24.545-7.275 7.275-13.504 15.475-18.514 24.37-5.208 9.25-14.46 15.505-24.748 16.734-34.867 4.164-62.744 18.94-93.213 49.41-26.08 26.08-38.272 62.071-34.331 101.343 3.551 35.382 20.327 71.578 46.026 99.307 31.283 33.755 75.409 54.391 118.036 55.2.91.018 1.812.026 2.717.026 34.236 0 64.694-12.384 88.218-35.907 29.04-29.04 45.091-59.446 49.072-92.956 1.222-10.287 7.303-19.409 16.267-24.401h.001c8.856-4.933 17.031-11.072 24.299-18.246 21.301-21.026 29.044-48.436 22.394-79.266-2.738-12.693-7.947-25.657-15.245-38.264l80.275-80.275 12.389 12.389c2.929 2.929 6.768 4.393 10.606 4.393s7.678-1.464 10.607-4.394c5.857-5.858 5.857-15.355 0-21.213l-12.389-12.388 18.747-18.747 12.389 12.389c2.929 2.929 6.768 4.394 10.606 4.394s7.678-1.464 10.606-4.394c5.858-5.858 5.858-15.355 0-21.213zm-61.173 18.748-21.375-21.375 42.669-42.669 21.375 21.375zm-108.5 218.881c-5.338 5.27-11.334 9.774-17.821 13.387-17.346 9.661-29.107 27.257-31.461 47.071-3.199 26.933-16.066 50.854-40.494 75.282-18.242 18.242-42.16 27.627-69.152 27.1-34.638-.658-70.75-17.704-96.603-45.598-40.556-43.76-56.315-115.214-12.485-159.044 31.75-31.75 55.078-38.389 75.558-40.835 19.751-2.359 37.445-14.248 47.331-31.802 3.67-6.517 8.241-12.531 13.586-17.877 10.46-10.459 23.028-15.76 37.365-15.76.131 0 .264 0 .395.001 11.473.078 23.98 3.547 36.451 9.846l-63.063 63.063c-9.672 2.113-18.871 6.907-26.376 14.412-20.893 20.892-20.893 54.886 0 75.778 10.446 10.446 24.167 15.669 37.889 15.669s27.443-5.223 37.889-15.669c7.514-7.514 12.31-16.725 14.42-26.41l62.569-62.568c11.996 24.045 16.046 52.194-5.998 73.954zm-92.204-6.188c-9.195 9.195-24.157 9.195-33.353 0s-9.195-24.157 0-33.353c4.598-4.598 10.637-6.896 16.676-6.896s12.079 2.299 16.676 6.896c9.196 9.196 9.196 24.158.001 33.353zm30.351-42.341c-2.392-4.388-5.429-8.515-9.138-12.224-3.714-3.714-7.846-6.754-12.241-9.148l149.143-149.143 21.375 21.375z"/></svg>