<svg id="palm" enable-background="new 0 0 300 300" height="512" viewBox="0 0 300 300" width="512" xmlns="http://www.w3.org/2000/svg"><path d="m228.613 138.996-.292-.176c-4.234-2.54-9.181-3.235-13.928-1.959-4.723 1.271-8.626 4.328-10.993 8.61-1.762 3.189-3.693 6.677-5.577 10.078l9.893-79.04c.893-7.138-3.147-13.988-9.827-16.66l-.286-.114c-4.563-1.825-9.644-1.523-13.94.831-4.275 2.343-7.25 6.434-8.16 11.224-2.334 12.282-5.795 29.608-8.835 44.652l-2.608-57.893c-.353-8.158-7.024-14.549-15.191-14.549h-.285c-8.61 0-15.615 6.97-15.615 15.537v53.44l-11.525-43.796c-1.104-4.194-4.003-7.625-7.955-9.413-3.951-1.788-8.441-1.701-12.321.239-5.579 2.789-8.698 8.807-7.762 14.974l8.517 56.116-11.241-20.608c-3.876-7.108-12.551-9.771-19.749-6.065-6.527 3.361-9.579 10.855-7.257 17.82l16.598 49.793c2.007 6.021 3.613 12.236 4.772 18.473l6.174 33.202c3.478 18.708 19.816 32.288 38.845 32.288h47.45c10.738 0 20.396-6.384 24.604-16.263l33.591-78.871c3.406-7.997.353-17.401-7.097-21.87zm-.264 18.735-33.591 78.871c-2.949 6.924-9.717 11.398-17.243 11.398h-47.45c-15.177 0-28.206-10.83-30.981-25.751l-6.174-33.201c-1.227-6.597-2.925-13.172-5.047-19.541l-16.598-49.793c-1.065-3.196.335-6.635 3.33-8.177 1.008-.519 2.078-.766 3.13-.766 2.397 0 4.697 1.282 5.933 3.549l22.115 40.544c.929 1.704 2.949 2.495 4.789 1.875s2.969-2.471 2.677-4.391l-11.924-78.566c-.414-2.726.965-5.385 3.431-6.618 1.713-.857 3.699-.896 5.445-.105 1.747.79 3.028 2.307 3.516 4.16l19.394 73.695c.512 1.945 2.392 3.208 4.381 2.949 1.994-.258 3.487-1.956 3.487-3.967v-84.359c0-4.156 3.416-7.537 7.615-7.537h.285c3.87 0 7.031 3.028 7.198 6.902l4.064 90.226c.091 2.016 1.669 3.648 3.681 3.807 2.015.167 3.827-1.205 4.233-3.181.103-.498 10.301-50.078 15.316-76.47.462-2.434 1.973-4.512 4.145-5.702 2.192-1.201 4.79-1.352 7.126-.418l.286.114c3.302 1.321 5.3 4.708 4.858 8.238l-12.267 98.016c-1.665 1.222-3.396 2.438-5.234 3.711-6.438 4.459-13.094 9.07-17.739 15.264l-.82 1.093c-1.326 1.767-.968 4.274.799 5.601.72.54 1.562.8 2.398.8 1.216 0 2.417-.552 3.203-1.599l.821-1.094c3.867-5.157 9.981-9.392 15.895-13.488 2.169-1.502 4.413-3.056 6.492-4.624 4.28-3.225 7.847-12.503 8.519-14.331.015-.04.018-.081.031-.12 2.723-4.91 5.824-10.508 8.529-15.404 1.307-2.364 3.462-4.053 6.069-4.754 2.631-.708 5.377-.32 7.73 1.092l.293.176c4.046 2.427 5.704 7.533 3.854 11.876z"/><path d="m153.61 200.707c-7.113-19.563-25.878-32.707-46.695-32.707-2.209 0-4 1.791-4 4s1.791 4 4 4c17.465 0 33.208 11.027 39.176 27.44l5.064 13.927c.591 1.625 2.125 2.634 3.76 2.634.454 0 .916-.078 1.367-.242 2.076-.755 3.147-3.05 2.392-5.126z"/></svg>