<svg id="Layer_1" enable-background="new 0 0 512 512" height="512" viewBox="0 0 512 512" width="512" xmlns="http://www.w3.org/2000/svg"><circle cx="473.355" cy="246.46" r="10"/><path d="m509.135 131.127c-1.873-9.381-4.668-18.643-8.305-27.534-3.616-8.832-8.084-17.373-13.293-25.386-5.219-8.033-11.23-15.596-17.841-22.489-6.692-6.963-14.075-13.298-21.969-18.832-8.044-5.645-16.679-10.49-25.665-14.416-18.943-8.274-39.279-12.47-60.446-12.47h-211.232c-21.167 0-41.503 4.196-60.446 12.468-8.986 3.926-17.621 8.772-25.665 14.416-7.894 5.535-15.277 11.869-21.969 18.832-6.611 6.893-12.622 14.457-17.841 22.489-5.209 8.013-9.687 16.554-13.293 25.386-3.637 8.892-6.432 18.153-8.305 27.534-1.903 9.533-2.865 19.274-2.865 28.945-.01 12.698 1.653 25.386 4.939 37.704 3.416 12.818 8.595 25.277 15.397 37.016l114.21 197.276c6.542 11.329 14.505 21.599 23.662 30.532 8.775 8.562 18.673 15.915 29.412 21.859 20.716 11.478 44.308 17.543 68.2 17.543h.36c23.902 0 47.484-6.065 68.2-17.544 10.739-5.945 20.636-13.298 29.412-21.859 9.156-8.932 17.12-19.202 23.662-30.532l82.014-141.668c1.342-2.308 1.693-5.005 1.002-7.583s-2.354-4.726-4.668-6.064c-1.523-.869-3.245-1.339-4.999-1.339-3.577 0-6.902 1.918-8.685 4.995l-82.014 141.668c-21.718 37.475-60.637 59.884-104.103 59.944-43.467-.06-82.385-22.469-104.103-59.944l-114.212-197.275c-11.711-20.241-17.651-42.021-17.661-64.73-.01-33.229 13.383-66.228 36.744-90.526 24.543-25.496 57.822-39.543 93.705-39.563h211.061c35.873.02 69.142 14.066 93.695 39.563 23.361 24.298 36.745 57.297 36.734 90.526 0 14.666-2.534 29.163-7.553 43.07-1.863 5.185.841 10.92 6.041 12.788 1.092.39 2.234.59 3.386.59 4.217 0 8.004-2.658 9.427-6.614 5.8-16.085 8.735-32.849 8.735-49.833 0-9.671-.962-19.412-2.865-28.943z"/><path d="m351.798 354.844-24.774 42.793c-6.882 11.889-16.563 21.884-27.995 28.905-4.711 2.893-6.178 9.048-3.277 13.746 1.893 3.065 5.177 4.753 8.539 4.753 1.792 0 3.606-.48 5.244-1.485 14.254-8.754 26.301-21.178 34.84-35.928l24.774-42.793c2.767-4.778 1.125-10.889-3.667-13.647-4.791-2.759-10.918-1.123-13.684 3.656z"/><path d="m411.627 184.84-39.985-97.678c-1.354-3.306-4.374-5.641-7.923-6.123-3.543-.481-7.085.962-9.276 3.787l-77.238 99.609-22.631-52.352c-1.438-3.326-4.569-5.616-8.183-5.984-3.609-.366-7.143 1.244-9.225 4.213l-115.692 164.968c-2.756 3.93-2.323 9.259 1.032 12.696 1.944 1.991 4.551 3.021 7.181 3.021 1.909 0 3.829-.542 5.517-1.654l95.947-63.193 25.186 50.762c1.326 2.672 3.778 4.613 6.688 5.295 2.911.681 5.972.032 8.352-1.771l137.037-103.864c3.609-2.736 4.926-7.547 3.213-11.732zm-142.713 92.365-24.837-50.058c-1.274-2.568-3.593-4.467-6.366-5.214-.86-.232-1.738-.346-2.612-.346-1.944 0-3.867.564-5.521 1.654l-61.573 40.553 75.284-107.348 22.247 51.463c1.404 3.248 4.426 5.513 7.944 5.957 3.518.443 7.01-1.002 9.18-3.8l77.003-99.306 30.513 74.538z"/></svg>